<svg display="block" role="presentation" viewBox="0 0 40 40" xmlns="http://www.w3.org/2000/svg"><g d="M 0 40 L 0 0 L 40 0 L 40 40 Z M 24.166 34.02 L 18.662 34.02 L 18.662 33.451 C 18.833 33.345 19.009 33.232 19.194 33.109 C 19.969 32.591 20.692 32.025 21.36 31.414 L 36.348 31.414 C 36.961 30.533 37.505 29.599 37.971 28.622 C 37.7 28.295 37.443 27.958 37.202 27.61 C 36.09 26.003 35.357 24.251 35.026 22.403 C 34.896 21.672 34.83 20.922 34.83 20.174 L 34.83 19.736 L 37.858 19.736 L 37.858 20.174 C 37.858 21.97 38.355 23.671 39.238 25.185 C 39.68 23.532 39.917 21.794 39.917 20.001 C 39.917 19.405 39.889 18.817 39.838 18.235 L 39.819 18.236 C 39.747 18.239 39.676 18.243 39.607 18.244 C 39.51 18.247 39.415 18.249 39.321 18.249 C 38.514 18.249 37.717 18.159 36.941 17.984 C 35.729 17.71 34.569 17.226 33.511 16.548 C 31.944 15.543 30.664 14.157 29.789 12.522 C 28.914 14.157 27.634 15.543 26.066 16.548 C 25.009 17.226 23.849 17.71 22.636 17.984 C 21.861 18.159 21.063 18.249 20.256 18.249 C 20.163 18.249 20.068 18.248 19.97 18.244 C 19.901 18.243 19.831 18.239 19.759 18.236 L 19.55 18.227 L 19.55 15.654 L 19.781 15.668 C 19.944 15.677 20.104 15.682 20.256 15.682 C 24.805 15.682 28.506 11.974 28.506 7.415 L 28.506 6.723 L 31.072 6.723 L 31.072 7.415 C 31.072 11.973 34.772 15.682 39.322 15.682 C 39.363 15.682 39.406 15.681 39.448 15.681 C 37.476 6.711 29.5 0 19.958 0 C 8.935 0 0 8.954 0 20 C 0 28.923 5.832 36.48 13.884 39.056 L 13.884 33.74 C 12.033 34.341 10.084 34.645 8.079 34.645 L 7.642 34.645 L 7.642 31.617 L 8.079 31.617 C 15.6 31.617 21.718 26.483 21.718 20.174 L 21.718 19.736 L 24.746 19.736 L 24.746 20.174 C 24.746 20.922 24.68 21.672 24.55 22.403 C 24.219 24.252 23.487 26.003 22.374 27.61 C 21.29 29.176 19.894 30.534 18.224 31.65 C 17.965 31.822 17.726 31.973 17.493 32.11 C 17.3 32.226 17.105 32.338 16.911 32.443 L 16.911 39.769 C 17.904 39.921 18.921 40.001 19.957 40.001 C 21.401 40.001 22.808 39.846 24.165 39.554 L 24.165 34.021 Z M 26.496 20.173 L 26.496 19.954 L 33.081 19.954 L 33.081 20.173 C 33.081 20.974 33.147 21.775 33.279 22.56 L 26.299 22.56 C 26.43 21.774 26.496 20.973 26.496 20.173 Z M 25.407 25.684 L 34.17 25.684 C 34.539 26.584 35 27.455 35.549 28.29 L 24.027 28.29 C 24.577 27.455 25.037 26.584 25.407 25.684 Z M 26.764 38.806 C 28.991 37.996 31.032 36.8 32.809 35.3 L 32.809 34.02 L 26.764 34.02 Z" fill="transparent" height="40.00058333333333px" id="MfTj5ZCgM" width="40px"><path d="M 0 40 L 0 0 L 40 0 L 40 40 Z" fill="transparent" height="40px" id="vPwr6Cy3c" width="40px"/><path d="M 24.166 34.02 L 18.662 34.02 L 18.662 33.451 C 18.833 33.345 19.009 33.232 19.194 33.109 C 19.969 32.591 20.692 32.025 21.36 31.414 L 36.348 31.414 C 36.961 30.533 37.505 29.599 37.971 28.622 C 37.7 28.295 37.443 27.958 37.202 27.61 C 36.09 26.003 35.357 24.251 35.026 22.403 C 34.896 21.672 34.83 20.922 34.83 20.174 L 34.83 19.736 L 37.858 19.736 L 37.858 20.174 C 37.858 21.97 38.355 23.671 39.238 25.185 C 39.68 23.532 39.917 21.794 39.917 20.001 C 39.917 19.405 39.889 18.817 39.838 18.235 L 39.819 18.236 C 39.747 18.239 39.676 18.243 39.607 18.244 C 39.51 18.247 39.415 18.249 39.321 18.249 C 38.514 18.249 37.717 18.159 36.941 17.984 C 35.729 17.71 34.569 17.226 33.511 16.548 C 31.944 15.543 30.664 14.157 29.789 12.522 C 28.914 14.157 27.634 15.543 26.066 16.548 C 25.009 17.226 23.849 17.71 22.636 17.984 C 21.861 18.159 21.063 18.249 20.256 18.249 C 20.163 18.249 20.068 18.248 19.97 18.244 C 19.901 18.243 19.831 18.239 19.759 18.236 L 19.55 18.227 L 19.55 15.654 L 19.781 15.668 C 19.944 15.677 20.104 15.682 20.256 15.682 C 24.805 15.682 28.506 11.974 28.506 7.415 L 28.506 6.723 L 31.072 6.723 L 31.072 7.415 C 31.072 11.973 34.772 15.682 39.322 15.682 C 39.363 15.682 39.406 15.681 39.448 15.681 C 37.476 6.711 29.5 0 19.958 0 C 8.935 0 0 8.954 0 20 C 0 28.923 5.832 36.48 13.884 39.056 L 13.884 33.74 C 12.033 34.341 10.084 34.645 8.079 34.645 L 7.642 34.645 L 7.642 31.617 L 8.079 31.617 C 15.6 31.617 21.718 26.483 21.718 20.174 L 21.718 19.736 L 24.746 19.736 L 24.746 20.174 C 24.746 20.922 24.68 21.672 24.55 22.403 C 24.219 24.252 23.487 26.003 22.374 27.61 C 21.29 29.176 19.894 30.534 18.224 31.65 C 17.965 31.822 17.726 31.973 17.493 32.11 C 17.3 32.226 17.105 32.338 16.911 32.443 L 16.911 39.769 C 17.904 39.921 18.921 40.001 19.957 40.001 C 21.401 40.001 22.808 39.846 24.165 39.554 L 24.165 34.021 Z M 26.496 20.173 L 26.496 19.954 L 33.081 19.954 L 33.081 20.173 C 33.081 20.974 33.147 21.775 33.279 22.56 L 26.299 22.56 C 26.43 21.774 26.496 20.973 26.496 20.173 Z M 25.407 25.684 L 34.17 25.684 C 34.539 26.584 35 27.455 35.549 28.29 L 24.027 28.29 C 24.577 27.455 25.037 26.584 25.407 25.684 Z" fill="rgb(250, 36, 46)" height="40.00058333333333px" id="gGPK0pvjK" width="39.91666666666667px"/><path d="M 0 4.786 C 2.227 3.976 4.268 2.78 6.045 1.28 L 6.045 0 L 0 0 Z" fill="rgb(250, 36, 46)" height="4.785500000000013px" id="wsD_O02Hc" transform="translate(26.764 34.02)" width="6.044583333333339px"/></g></svg>